<svg width="32" height="32" viewBox="0 0 32 32" fill="none" xmlns="http://www.w3.org/2000/svg">
<rect width="32" height="32" fill="#E5E5E5"/>
<g id="Desktop">
<rect width="1920" height="2974" transform="translate(-161 -2916)" fill="#FAFAFA"/>
<g id="footer" clip-path="url(#clip0_0_1)">
<g id="footer-layout.mobile">
<rect width="1920" height="461" transform="translate(-161 -318)" fill="white"/>
</g>
<g id="footer-layout.desktop">
<rect width="1920" height="376" transform="translate(-161 -318)" fill="#FAFAFA"/>
<g id="flex-layout.row#footer-desktop">
<rect width="1920" height="85" transform="translate(-161 -27)" fill="#353535"/>
<g id="social-networks#social-midia">
<g id="https://facebook.com/">
<path id="https://facebook.com/_2" d="M32 3.42857V28.5714C32 30.4643 30.4643 32 28.5714 32H22.4786V19.3429H26.8071L27.4286 14.5143H22.4786V11.4286C22.4786 10.0286 22.8643 9.07857 24.8714 9.07857H27.4286V4.76429C26.9857 4.70714 25.4714 4.57143 23.7 4.57143C20.0143 4.57143 17.4857 6.82143 17.4857 10.9571V14.5214H13.1429V19.35H17.4929V32H3.42857C1.53571 32 0 30.4643 0 28.5714V3.42857C0 1.53571 1.53571 0 3.42857 0H28.5714C30.4643 0 32 1.53571 32 3.42857Z" fill="white"/>
</g>
</g>
</g>
</g>
</g>
</g>
<defs>
<clipPath id="clip0_0_1">
<rect width="1920" height="376" fill="white" transform="translate(-161 -318)"/>
</clipPath>
</defs>
</svg>
